<svg xmlns="http://www.w3.org/2000/svg" xmlns:xlink="http://www.w3.org/1999/xlink" width="500" zoomAndPan="magnify" viewBox="0 0 375 374.999991" height="500" preserveAspectRatio="xMidYMid meet" version="1.0"><defs><g/><clipPath id="4415b14e94"><path d="M 142 204 L 244 204 L 244 233.28125 L 142 233.28125 Z M 142 204 " clip-rule="nonzero"/></clipPath><clipPath id="f3011bb519"><path d="M 122.09375 128 L 136 128 L 136 196 L 122.09375 196 Z M 122.09375 128 " clip-rule="nonzero"/></clipPath><clipPath id="c1f95bceb7"><path d="M 207 166 L 252.59375 166 L 252.59375 227 L 207 227 Z M 207 166 " clip-rule="nonzero"/></clipPath><clipPath id="bb5f8eb656"><path d="M 126 102.78125 L 188 102.78125 L 188 218 L 126 218 Z M 126 102.78125 " clip-rule="nonzero"/></clipPath></defs><g fill="#333333" fill-opacity="1"><g transform="translate(87.754458, 268.351673)"><g><path d="M 3.015625 -4.9375 L 3.015625 0 L 1.625 0 L 1.625 -11.859375 L 4.875 -11.859375 C 6.332031 -11.859375 7.40625 -11.578125 8.09375 -11.015625 C 8.789062 -10.460938 9.140625 -9.625 9.140625 -8.5 C 9.140625 -6.9375 8.347656 -5.878906 6.765625 -5.328125 L 9.984375 0 L 8.359375 0 L 5.484375 -4.9375 Z M 3.015625 -6.109375 L 4.90625 -6.109375 C 5.875 -6.109375 6.582031 -6.300781 7.03125 -6.6875 C 7.488281 -7.082031 7.71875 -7.664062 7.71875 -8.4375 C 7.71875 -9.21875 7.484375 -9.78125 7.015625 -10.125 C 6.554688 -10.476562 5.816406 -10.65625 4.796875 -10.65625 L 3.015625 -10.65625 Z M 3.015625 -6.109375 "/></g></g></g><g fill="#333333" fill-opacity="1"><g transform="translate(111.211373, 268.351673)"><g><path d="M 8.234375 0 L 1.625 0 L 1.625 -11.859375 L 8.234375 -11.859375 L 8.234375 -10.625 L 3.015625 -10.625 L 3.015625 -6.8125 L 7.921875 -6.8125 L 7.921875 -5.59375 L 3.015625 -5.59375 L 3.015625 -1.234375 L 8.234375 -1.234375 Z M 8.234375 0 "/></g></g></g><g fill="#333333" fill-opacity="1"><g transform="translate(133.638235, 268.351673)"><g><path d="M 1.625 -11.859375 L 4.984375 -11.859375 C 6.554688 -11.859375 7.691406 -11.625 8.390625 -11.15625 C 9.097656 -10.6875 9.453125 -9.941406 9.453125 -8.921875 C 9.453125 -8.210938 9.253906 -7.628906 8.859375 -7.171875 C 8.460938 -6.722656 7.890625 -6.429688 7.140625 -6.296875 L 7.140625 -6.21875 C 8.941406 -5.90625 9.84375 -4.957031 9.84375 -3.375 C 9.84375 -2.3125 9.484375 -1.484375 8.765625 -0.890625 C 8.054688 -0.296875 7.054688 0 5.765625 0 L 1.625 0 Z M 3.015625 -6.78125 L 5.28125 -6.78125 C 6.25 -6.78125 6.945312 -6.929688 7.375 -7.234375 C 7.800781 -7.546875 8.015625 -8.0625 8.015625 -8.78125 C 8.015625 -9.445312 7.773438 -9.925781 7.296875 -10.21875 C 6.828125 -10.519531 6.070312 -10.671875 5.03125 -10.671875 L 3.015625 -10.671875 Z M 3.015625 -5.609375 L 3.015625 -1.171875 L 5.484375 -1.171875 C 6.441406 -1.171875 7.160156 -1.351562 7.640625 -1.71875 C 8.128906 -2.09375 8.375 -2.675781 8.375 -3.46875 C 8.375 -4.207031 8.125 -4.75 7.625 -5.09375 C 7.132812 -5.4375 6.382812 -5.609375 5.375 -5.609375 Z M 3.015625 -5.609375 "/></g></g></g><g fill="#333333" fill-opacity="1"><g transform="translate(157.5899, 268.351673)"><g><path d="M 11.921875 -5.9375 C 11.921875 -4.039062 11.441406 -2.550781 10.484375 -1.46875 C 9.523438 -0.382812 8.191406 0.15625 6.484375 0.15625 C 4.734375 0.15625 3.382812 -0.375 2.4375 -1.4375 C 1.488281 -2.507812 1.015625 -4.015625 1.015625 -5.953125 C 1.015625 -7.890625 1.488281 -9.390625 2.4375 -10.453125 C 3.394531 -11.515625 4.75 -12.046875 6.5 -12.046875 C 8.195312 -12.046875 9.523438 -11.503906 10.484375 -10.421875 C 11.441406 -9.335938 11.921875 -7.84375 11.921875 -5.9375 Z M 2.46875 -5.9375 C 2.46875 -4.332031 2.8125 -3.113281 3.5 -2.28125 C 4.1875 -1.457031 5.179688 -1.046875 6.484375 -1.046875 C 7.796875 -1.046875 8.785156 -1.457031 9.453125 -2.28125 C 10.128906 -3.113281 10.46875 -4.332031 10.46875 -5.9375 C 10.46875 -7.539062 10.128906 -8.753906 9.453125 -9.578125 C 8.785156 -10.398438 7.800781 -10.8125 6.5 -10.8125 C 5.1875 -10.8125 4.1875 -10.394531 3.5 -9.5625 C 2.8125 -8.738281 2.46875 -7.53125 2.46875 -5.9375 Z M 2.46875 -5.9375 "/></g></g></g><g fill="#333333" fill-opacity="1"><g transform="translate(183.715219, 268.351673)"><g><path d="M 11.921875 -5.9375 C 11.921875 -4.039062 11.441406 -2.550781 10.484375 -1.46875 C 9.523438 -0.382812 8.191406 0.15625 6.484375 0.15625 C 4.734375 0.15625 3.382812 -0.375 2.4375 -1.4375 C 1.488281 -2.507812 1.015625 -4.015625 1.015625 -5.953125 C 1.015625 -7.890625 1.488281 -9.390625 2.4375 -10.453125 C 3.394531 -11.515625 4.75 -12.046875 6.5 -12.046875 C 8.195312 -12.046875 9.523438 -11.503906 10.484375 -10.421875 C 11.441406 -9.335938 11.921875 -7.84375 11.921875 -5.9375 Z M 2.46875 -5.9375 C 2.46875 -4.332031 2.8125 -3.113281 3.5 -2.28125 C 4.1875 -1.457031 5.179688 -1.046875 6.484375 -1.046875 C 7.796875 -1.046875 8.785156 -1.457031 9.453125 -2.28125 C 10.128906 -3.113281 10.46875 -4.332031 10.46875 -5.9375 C 10.46875 -7.539062 10.128906 -8.753906 9.453125 -9.578125 C 8.785156 -10.398438 7.800781 -10.8125 6.5 -10.8125 C 5.1875 -10.8125 4.1875 -10.394531 3.5 -9.5625 C 2.8125 -8.738281 2.46875 -7.53125 2.46875 -5.9375 Z M 2.46875 -5.9375 "/></g></g></g><g fill="#333333" fill-opacity="1"><g transform="translate(209.840538, 268.351673)"><g><path d="M 5.28125 0 L 3.90625 0 L 3.90625 -10.625 L 0.140625 -10.625 L 0.140625 -11.859375 L 9.03125 -11.859375 L 9.03125 -10.625 L 5.28125 -10.625 Z M 5.28125 0 "/></g></g></g><g fill="#333333" fill-opacity="1"><g transform="translate(232.218736, 268.351673)"><g><path d="M 8.234375 0 L 1.625 0 L 1.625 -11.859375 L 8.234375 -11.859375 L 8.234375 -10.625 L 3.015625 -10.625 L 3.015625 -6.8125 L 7.921875 -6.8125 L 7.921875 -5.59375 L 3.015625 -5.59375 L 3.015625 -1.234375 L 8.234375 -1.234375 Z M 8.234375 0 "/></g></g></g><g fill="#333333" fill-opacity="1"><g transform="translate(254.645597, 268.351673)"><g><path d="M 3.015625 -4.9375 L 3.015625 0 L 1.625 0 L 1.625 -11.859375 L 4.875 -11.859375 C 6.332031 -11.859375 7.40625 -11.578125 8.09375 -11.015625 C 8.789062 -10.460938 9.140625 -9.625 9.140625 -8.5 C 9.140625 -6.9375 8.347656 -5.878906 6.765625 -5.328125 L 9.984375 0 L 8.359375 0 L 5.484375 -4.9375 Z M 3.015625 -6.109375 L 4.90625 -6.109375 C 5.875 -6.109375 6.582031 -6.300781 7.03125 -6.6875 C 7.488281 -7.082031 7.71875 -7.664062 7.71875 -8.4375 C 7.71875 -9.21875 7.484375 -9.78125 7.015625 -10.125 C 6.554688 -10.476562 5.816406 -10.65625 4.796875 -10.65625 L 3.015625 -10.65625 Z M 3.015625 -6.109375 "/></g></g></g><g fill="#333333" fill-opacity="1"><g transform="translate(278.102512, 268.351673)"><g><path d="M 8.328125 -3.15625 C 8.328125 -2.113281 7.945312 -1.300781 7.1875 -0.71875 C 6.425781 -0.132812 5.398438 0.15625 4.109375 0.15625 C 2.703125 0.15625 1.617188 -0.0195312 0.859375 -0.375 L 0.859375 -1.71875 C 1.347656 -1.507812 1.878906 -1.34375 2.453125 -1.21875 C 3.023438 -1.101562 3.59375 -1.046875 4.15625 -1.046875 C 5.070312 -1.046875 5.757812 -1.21875 6.21875 -1.5625 C 6.6875 -1.914062 6.921875 -2.40625 6.921875 -3.03125 C 6.921875 -3.4375 6.835938 -3.769531 6.671875 -4.03125 C 6.515625 -4.289062 6.238281 -4.53125 5.84375 -4.75 C 5.457031 -4.976562 4.875 -5.234375 4.09375 -5.515625 C 2.988281 -5.910156 2.195312 -6.378906 1.71875 -6.921875 C 1.25 -7.460938 1.015625 -8.164062 1.015625 -9.03125 C 1.015625 -9.945312 1.359375 -10.675781 2.046875 -11.21875 C 2.734375 -11.757812 3.640625 -12.03125 4.765625 -12.03125 C 5.941406 -12.03125 7.023438 -11.8125 8.015625 -11.375 L 7.59375 -10.171875 C 6.613281 -10.585938 5.660156 -10.796875 4.734375 -10.796875 C 4.003906 -10.796875 3.429688 -10.640625 3.015625 -10.328125 C 2.609375 -10.015625 2.40625 -9.578125 2.40625 -9.015625 C 2.40625 -8.609375 2.476562 -8.269531 2.625 -8 C 2.78125 -7.738281 3.035156 -7.5 3.390625 -7.28125 C 3.753906 -7.0625 4.304688 -6.820312 5.046875 -6.5625 C 6.296875 -6.113281 7.15625 -5.632812 7.625 -5.125 C 8.09375 -4.625 8.328125 -3.96875 8.328125 -3.15625 Z M 8.328125 -3.15625 "/></g></g></g><g clip-path="url(#4415b14e94)"><path fill="#54afe6" d="M 238.917969 206.136719 C 238.925781 206.128906 238.9375 206.113281 238.953125 206.089844 C 238.9375 206.109375 238.925781 206.125 238.917969 206.136719 Z M 239.457031 208.621094 C 238.609375 207.976562 238.445312 206.757812 239.09375 205.90625 C 239.0625 205.949219 239.03125 205.988281 239.003906 206.027344 C 239.027344 205.996094 239.054688 205.957031 239.09375 205.90625 C 239.203125 205.761719 239.257812 205.691406 239.273438 205.671875 C 239.253906 205.699219 239.171875 205.804688 239.09375 205.90625 C 239.738281 205.058594 240.949219 204.894531 241.796875 205.542969 C 242.644531 206.191406 242.808594 207.40625 242.160156 208.257812 C 241.515625 209.105469 240.304688 209.269531 239.457031 208.621094 Z M 142.824219 213.285156 C 141.980469 214.183594 142.023438 215.597656 142.921875 216.441406 C 143.570312 217.050781 144.484375 217.195312 145.261719 216.890625 C 157.414062 227.472656 172.847656 233.277344 188.960938 233.277344 C 199.371094 233.277344 209.347656 230.929688 218.621094 226.296875 C 226.726562 222.25 234.046875 216.472656 239.925781 209.511719 C 240.898438 209.792969 241.984375 209.46875 242.632812 208.617188 C 243.476562 207.507812 243.261719 205.917969 242.15625 205.070312 C 241.050781 204.226562 239.464844 204.4375 238.621094 205.546875 C 238.007812 206.355469 237.957031 207.417969 238.398438 208.261719 C 226.023438 222.933594 208.144531 231.296875 188.960938 231.296875 C 173.335938 231.296875 158.375 225.671875 146.585938 215.417969 C 146.804688 214.644531 146.59375 213.773438 145.96875 213.183594 C 145.074219 212.339844 143.664062 212.382812 142.824219 213.285156 " fill-opacity="1" fill-rule="nonzero"/></g><g clip-path="url(#f3011bb519)"><path fill="#54afe6" d="M 130.515625 192.027344 C 130.511719 192.015625 130.503906 192 130.492188 191.972656 C 130.503906 192 130.511719 192.019531 130.515625 192.027344 Z M 130.320312 191.582031 C 130.265625 191.460938 130.238281 191.40625 130.320312 191.582031 Z M 127.84375 190.777344 C 128.8125 190.339844 129.957031 190.777344 130.394531 191.75 C 130.828125 192.726562 130.394531 193.875 129.425781 194.3125 C 128.453125 194.75 127.308594 194.3125 126.875 193.335938 C 126.4375 192.363281 126.871094 191.214844 127.84375 190.777344 Z M 135.183594 132.261719 C 135.855469 131.230469 135.570312 129.84375 134.539062 129.167969 C 133.511719 128.492188 132.132812 128.78125 131.460938 129.8125 C 130.96875 130.566406 130.992188 131.511719 131.4375 132.226562 C 125.378906 142.515625 122.183594 154.230469 122.183594 166.246094 C 122.183594 174.734375 123.746094 182.976562 126.820312 190.785156 C 126.128906 191.511719 125.898438 192.609375 126.332031 193.582031 C 126.902344 194.855469 128.398438 195.425781 129.667969 194.855469 C 130.933594 194.28125 131.503906 192.78125 130.933594 191.507812 C 130.515625 190.574219 129.597656 190.019531 128.640625 190.015625 C 125.667969 182.449219 124.15625 174.464844 124.15625 166.246094 C 124.15625 154.601562 127.25 143.242188 133.121094 133.261719 C 133.914062 133.335938 134.71875 132.976562 135.183594 132.261719 " fill-opacity="1" fill-rule="nonzero"/></g><path fill="#54afe6" d="M 216.515625 113.742188 C 216.539062 113.753906 216.542969 113.757812 216.515625 113.742188 Z M 216.503906 113.738281 C 216.492188 113.730469 216.46875 113.71875 216.445312 113.707031 C 216.46875 113.71875 216.488281 113.730469 216.503906 113.738281 Z M 217.984375 110.148438 C 218.9375 110.625 219.324219 111.792969 218.847656 112.746094 C 218.371094 113.703125 217.210938 114.09375 216.257812 113.613281 C 215.308594 113.136719 214.917969 111.972656 215.394531 111.015625 C 215.871094 110.0625 217.03125 109.671875 217.984375 110.148438 Z M 238.804688 127.152344 C 238.261719 126.433594 237.367188 126.140625 236.539062 126.324219 C 231.800781 120.648438 226.019531 115.796875 219.628906 112.128906 C 219.726562 111.117188 219.207031 110.097656 218.246094 109.617188 C 217.003906 108.996094 215.484375 109.503906 214.867188 110.753906 C 214.246094 112 214.75 113.523438 215.996094 114.148438 C 216.894531 114.597656 217.9375 114.453125 218.683594 113.867188 C 224.847656 117.410156 230.425781 122.09375 235.007812 127.570312 C 234.675781 128.296875 234.746094 129.171875 235.257812 129.851562 C 236 130.835938 237.394531 131.027344 238.375 130.285156 C 239.355469 129.539062 239.546875 128.136719 238.804688 127.152344 " fill-opacity="1" fill-rule="nonzero"/><g clip-path="url(#c1f95bceb7)"><path fill="#54afe6" d="M 248.035156 168.964844 C 248.03125 168.992188 248.03125 169.011719 248.03125 169.027344 C 248.03125 169.015625 248.03125 168.992188 248.035156 168.964844 Z M 248.042969 168.433594 C 248.042969 168.429688 248.042969 168.429688 248.042969 168.433594 Z M 250.007812 166.839844 C 251.070312 166.863281 251.917969 167.75 251.894531 168.816406 C 251.875 169.882812 250.992188 170.734375 249.925781 170.714844 C 248.863281 170.691406 248.015625 169.804688 248.039062 168.738281 C 248.035156 168.820312 248.035156 168.898438 248.035156 168.957031 C 248.035156 168.910156 248.035156 168.835938 248.039062 168.738281 C 248.039062 168.578125 248.042969 168.492188 248.042969 168.453125 C 248.042969 168.503906 248.039062 168.621094 248.039062 168.738281 C 248.058594 167.667969 248.941406 166.820312 250.007812 166.839844 Z M 252.488281 168.828125 C 252.515625 167.433594 251.410156 166.273438 250.019531 166.246094 C 248.628906 166.21875 247.472656 167.328125 247.445312 168.726562 C 247.425781 169.734375 248 170.617188 248.84375 171.039062 C 247.054688 193.917969 232.613281 213.632812 211.332031 222.207031 C 210.75 221.667969 209.894531 221.457031 209.09375 221.734375 C 207.929688 222.136719 207.316406 223.410156 207.714844 224.578125 C 208.117188 225.742188 209.386719 226.363281 210.546875 225.957031 C 211.398438 225.664062 211.953125 224.902344 212.035156 224.058594 C 222.683594 219.765625 231.90625 212.621094 238.804688 203.292969 C 245.78125 193.863281 249.90625 182.800781 250.8125 171.15625 C 251.769531 170.816406 252.464844 169.90625 252.488281 168.828125 C 252.488281 168.832031 252.488281 168.832031 252.488281 168.835938 C 252.488281 168.832031 252.488281 168.832031 252.488281 168.828125 C 252.488281 168.789062 252.488281 168.753906 252.492188 168.71875 C 252.488281 168.753906 252.488281 168.792969 252.488281 168.828125 " fill-opacity="1" fill-rule="nonzero"/></g><g clip-path="url(#bb5f8eb656)"><path fill="#54afe6" d="M 152.75 213.132812 C 152.742188 213.128906 152.742188 213.128906 152.75 213.132812 Z M 150.289062 213.71875 C 150.925781 212.859375 152.132812 212.679688 152.988281 213.3125 C 152.894531 213.242188 152.796875 213.167969 152.757812 213.140625 C 152.789062 213.164062 152.859375 213.214844 152.988281 213.3125 C 153.144531 213.425781 153.214844 213.476562 153.230469 213.492188 C 153.207031 213.472656 153.097656 213.394531 152.988281 213.3125 C 153.84375 213.949219 154.027344 215.164062 153.394531 216.023438 C 152.761719 216.882812 151.550781 217.0625 150.695312 216.425781 C 149.839844 215.792969 149.65625 214.578125 150.289062 213.71875 Z M 183.429688 104.21875 C 168.410156 105.554688 154.472656 112.308594 143.992188 123.378906 C 132.980469 135.011719 126.917969 150.234375 126.917969 166.246094 C 126.917969 176.101562 129.15625 185.53125 133.566406 194.28125 C 137.402344 201.890625 142.855469 208.730469 149.414062 214.199219 C 149.144531 215.175781 149.480469 216.265625 150.34375 216.90625 C 151.460938 217.734375 153.042969 217.496094 153.871094 216.375 C 154.695312 215.253906 154.460938 213.664062 153.34375 212.835938 C 152.53125 212.230469 151.476562 212.195312 150.640625 212.648438 C 136.789062 201.125 128.890625 184.351562 128.890625 166.246094 C 128.890625 134.933594 152.738281 108.953125 183.558594 106.195312 C 183.960938 106.890625 184.726562 107.34375 185.582031 107.304688 C 186.8125 107.25 187.761719 106.203125 187.707031 104.972656 C 187.648438 103.738281 186.609375 102.785156 185.382812 102.839844 C 184.492188 102.878906 183.75 103.441406 183.429688 104.21875 " fill-opacity="1" fill-rule="nonzero"/></g><path fill="#54afe6" d="M 240.332031 184.195312 C 240.328125 184.214844 240.320312 184.234375 240.316406 184.25 C 240.320312 184.234375 240.328125 184.214844 240.332031 184.195312 Z M 240.3125 184.261719 C 240.304688 184.285156 240.296875 184.304688 240.292969 184.320312 C 240.296875 184.304688 240.304688 184.285156 240.3125 184.261719 Z M 240.277344 184.367188 C 240.277344 184.371094 240.277344 184.371094 240.277344 184.367188 Z M 240.425781 183.902344 C 240.429688 183.898438 240.429688 183.894531 240.429688 183.890625 C 240.429688 183.894531 240.429688 183.898438 240.425781 183.902344 Z M 240.449219 183.832031 C 240.457031 183.808594 240.460938 183.792969 240.464844 183.785156 C 240.460938 183.792969 240.457031 183.808594 240.449219 183.832031 Z M 242.800781 182.828125 C 243.8125 183.15625 244.371094 184.25 244.042969 185.265625 C 243.71875 186.28125 242.628906 186.84375 241.613281 186.515625 C 240.601562 186.1875 240.046875 185.09375 240.371094 184.078125 C 240.386719 184.03125 240.398438 183.992188 240.410156 183.957031 C 240.398438 183.996094 240.386719 184.035156 240.371094 184.078125 C 240.699219 183.058594 241.789062 182.5 242.800781 182.828125 Z M 244.660156 185.292969 C 244.640625 185.339844 244.625 185.394531 244.605469 185.449219 C 245.035156 184.121094 244.304688 182.691406 242.980469 182.261719 C 241.660156 181.835938 240.234375 182.566406 239.808594 183.894531 C 239.5 184.851562 239.796875 185.863281 240.480469 186.511719 C 232.195312 207.710938 211.789062 221.792969 188.960938 221.792969 C 170.199219 221.792969 152.546875 212.046875 142.398438 196.222656 C 142.816406 195.546875 142.863281 194.667969 142.441406 193.929688 C 141.832031 192.859375 140.476562 192.484375 139.40625 193.097656 C 138.339844 193.707031 137.96875 195.074219 138.578125 196.144531 C 139.023438 196.929688 139.875 197.339844 140.714844 197.261719 C 145.625 204.925781 152.304688 211.359375 160.152344 215.960938 C 168.871094 221.070312 178.832031 223.773438 188.960938 223.773438 C 212.617188 223.773438 233.761719 209.171875 242.335938 187.195312 C 243.351562 187.144531 244.277344 186.476562 244.605469 185.449219 C 244.5625 185.585938 244.519531 185.722656 244.496094 185.789062 C 244.515625 185.738281 244.546875 185.632812 244.605469 185.449219 C 244.625 185.386719 244.644531 185.335938 244.660156 185.292969 " fill-opacity="1" fill-rule="nonzero"/><path fill="#54afe6" d="M 132.660156 167.039062 C 131.59375 167.035156 130.734375 166.160156 130.738281 165.09375 C 130.742188 164.023438 131.613281 163.160156 132.679688 163.167969 C 133.742188 163.171875 134.601562 164.042969 134.597656 165.113281 C 134.597656 164.847656 134.601562 164.578125 134.597656 165.113281 C 134.597656 165.273438 134.597656 165.359375 134.597656 165.398438 C 134.597656 165.351562 134.597656 165.230469 134.597656 165.113281 C 134.59375 166.179688 133.722656 167.046875 132.660156 167.039062 Z M 188.960938 109.710938 C 188.929688 108.480469 187.910156 107.503906 186.679688 107.535156 C 185.785156 107.558594 185.027344 108.109375 184.695312 108.882812 C 170.839844 109.910156 157.90625 115.925781 148.089844 125.960938 C 138.335938 135.933594 132.59375 148.914062 131.761719 162.746094 C 130.820312 163.109375 130.152344 164.019531 130.148438 165.089844 C 130.140625 166.484375 131.265625 167.628906 132.65625 167.632812 C 134.046875 167.640625 135.183594 166.511719 135.191406 165.113281 C 135.195312 164.097656 134.597656 163.21875 133.734375 162.8125 C 135.417969 135.164062 157.25 112.921875 184.796875 110.863281 C 185.1875 111.558594 185.941406 112.023438 186.792969 112.003906 C 188.023438 111.96875 188.992188 110.945312 188.960938 109.710938 " fill-opacity="1" fill-rule="nonzero"/><path fill="#54afe6" d="M 149.660156 135.824219 C 149.667969 135.8125 149.667969 135.8125 149.660156 135.824219 Z M 149.644531 135.84375 C 149.621094 135.878906 149.574219 135.941406 149.5 136.042969 C 149.558594 135.960938 149.613281 135.886719 149.644531 135.84375 Z M 149.46875 136.085938 C 149.421875 136.152344 149.382812 136.199219 149.359375 136.238281 C 149.390625 136.195312 149.429688 136.140625 149.46875 136.085938 Z M 149.347656 136.25 C 149.335938 136.265625 149.328125 136.277344 149.320312 136.289062 C 149.328125 136.277344 149.339844 136.265625 149.347656 136.25 Z M 149.3125 136.304688 C 149.300781 136.316406 149.300781 136.3125 149.3125 136.304688 Z M 149.070312 133.355469 C 149.925781 133.988281 150.113281 135.203125 149.484375 136.066406 C 148.855469 136.925781 147.648438 137.113281 146.789062 136.480469 C 145.929688 135.851562 145.742188 134.636719 146.371094 133.773438 C 147 132.910156 148.210938 132.726562 149.070312 133.355469 Z M 224.84375 127.714844 C 215.0625 118.515625 202.40625 113.476562 188.960938 113.476562 C 180.605469 113.476562 172.613281 115.394531 165.203125 119.179688 C 158.867188 122.414062 153.171875 126.984375 148.59375 132.480469 C 147.617188 132.210938 146.53125 132.554688 145.894531 133.421875 C 145.074219 134.546875 145.316406 136.136719 146.4375 136.960938 C 147.558594 137.785156 149.140625 137.539062 149.960938 136.414062 C 150.558594 135.601562 150.589844 134.542969 150.140625 133.710938 C 159.804688 122.078125 173.816406 115.457031 188.960938 115.457031 C 201.886719 115.457031 214.054688 120.296875 223.464844 129.128906 C 223.21875 129.886719 223.386719 130.75 223.972656 131.367188 C 224.820312 132.257812 226.230469 132.289062 227.117188 131.433594 C 228.007812 130.582031 228.035156 129.167969 227.1875 128.273438 C 226.5625 127.625 225.640625 127.433594 224.84375 127.714844 " fill-opacity="1" fill-rule="nonzero"/><path fill="#54afe6" d="M 188.332031 211.335938 C 188.339844 211.335938 188.347656 211.335938 188.363281 211.335938 C 188.351562 211.335938 188.339844 211.335938 188.332031 211.335938 Z M 188.386719 211.335938 C 188.417969 211.332031 188.464844 211.332031 188.523438 211.332031 C 188.46875 211.332031 188.421875 211.332031 188.386719 211.335938 Z M 188.871094 211.324219 C 188.882812 211.324219 188.894531 211.324219 188.902344 211.324219 C 188.894531 211.324219 188.882812 211.324219 188.871094 211.324219 Z M 188.929688 211.324219 C 188.941406 211.324219 188.941406 211.324219 188.929688 211.324219 Z M 186.738281 213.300781 C 186.71875 212.230469 187.566406 211.347656 188.632812 211.328125 C 188.628906 211.328125 188.628906 211.328125 188.628906 211.328125 C 188.628906 211.328125 188.628906 211.328125 188.632812 211.328125 C 188.679688 211.328125 188.714844 211.328125 188.75 211.328125 C 188.714844 211.328125 188.671875 211.328125 188.632812 211.328125 C 189.695312 211.3125 190.578125 212.164062 190.597656 213.230469 C 190.613281 214.300781 189.765625 215.183594 188.699219 215.203125 C 187.636719 215.222656 186.753906 214.367188 186.738281 213.300781 Z M 188.710938 215.796875 C 190.101562 215.773438 191.210938 214.617188 191.1875 213.222656 C 191.164062 211.828125 190.011719 210.710938 188.621094 210.734375 C 187.625 210.753906 186.773438 211.355469 186.378906 212.210938 C 162.300781 210.859375 143.097656 190.726562 143.097656 166.246094 C 143.097656 149.328125 152.136719 134.070312 166.820312 125.9375 C 167.460938 126.402344 168.324219 126.515625 169.085938 126.152344 C 170.199219 125.625 170.671875 124.292969 170.148438 123.175781 C 169.621094 122.0625 168.296875 121.585938 167.183594 122.113281 C 166.367188 122.5 165.894531 123.328125 165.910156 124.179688 C 158.855469 128.089844 152.878906 133.726562 148.539062 140.589844 C 143.6875 148.265625 141.125 157.136719 141.125 166.246094 C 141.125 191.800781 161.183594 212.808594 186.324219 214.191406 C 186.699219 215.144531 187.628906 215.816406 188.710938 215.796875 " fill-opacity="1" fill-rule="nonzero"/><path fill="#54afe6" d="M 152.210938 182.589844 C 152.214844 182.589844 152.214844 182.59375 152.21875 182.597656 C 152.214844 182.59375 152.214844 182.59375 152.210938 182.589844 Z M 152.371094 182.910156 C 152.378906 182.929688 152.386719 182.949219 152.394531 182.964844 C 152.386719 182.949219 152.378906 182.929688 152.371094 182.910156 Z M 152.449219 183.070312 C 152.460938 183.097656 152.46875 183.113281 152.472656 183.125 C 152.46875 183.113281 152.460938 183.09375 152.449219 183.070312 Z M 149.757812 181.96875 C 150.714844 181.5 151.871094 181.894531 152.339844 182.851562 C 152.8125 183.8125 152.414062 184.972656 151.460938 185.445312 C 150.503906 185.917969 149.347656 185.519531 148.878906 184.5625 C 148.40625 183.605469 148.804688 182.441406 149.757812 181.96875 Z M 145.859375 166.246094 C 145.859375 171.683594 146.847656 176.953125 148.796875 181.949219 C 148.082031 182.695312 147.867188 183.84375 148.347656 184.824219 C 148.28125 184.691406 148.21875 184.558594 148.1875 184.5 C 148.210938 184.546875 148.261719 184.648438 148.347656 184.824219 C 148.433594 185 148.480469 185.101562 148.503906 185.148438 C 148.476562 185.085938 148.410156 184.957031 148.347656 184.824219 C 148.960938 186.078125 150.476562 186.59375 151.722656 185.980469 C 152.96875 185.363281 153.484375 183.84375 152.871094 182.589844 C 152.4375 181.699219 151.542969 181.183594 150.617188 181.179688 C 148.769531 176.425781 147.832031 171.414062 147.832031 166.246094 C 147.832031 143.484375 166.28125 124.960938 188.960938 124.960938 C 191.898438 124.960938 194.820312 125.28125 197.667969 125.898438 C 197.84375 126.664062 198.410156 127.316406 199.214844 127.554688 C 200.394531 127.902344 201.632812 127.222656 201.976562 126.039062 C 202.320312 124.855469 201.644531 123.613281 200.464844 123.265625 C 199.59375 123.007812 198.691406 123.3125 198.140625 123.96875 C 195.136719 123.3125 192.058594 122.980469 188.960938 122.980469 C 165.195312 122.980469 145.859375 142.390625 145.859375 166.246094 " fill-opacity="1" fill-rule="nonzero"/><path fill="#54afe6" d="M 214.109375 191.296875 C 214.089844 191.316406 214.074219 191.335938 214.058594 191.351562 C 214.074219 191.335938 214.089844 191.320312 214.109375 191.296875 Z M 214.308594 191.078125 C 214.328125 191.058594 214.34375 191.042969 214.355469 191.027344 C 214.34375 191.042969 214.324219 191.0625 214.308594 191.078125 Z M 214.40625 190.976562 C 214.457031 190.917969 214.445312 190.929688 214.40625 190.976562 Z M 216.957031 191.054688 C 217.738281 191.777344 217.789062 193.007812 217.066406 193.789062 C 216.34375 194.574219 215.121094 194.625 214.339844 193.898438 C 213.558594 193.175781 213.511719 191.949219 214.230469 191.164062 C 214.222656 191.171875 214.214844 191.179688 214.207031 191.191406 C 214.214844 191.179688 214.222656 191.171875 214.230469 191.164062 C 214.246094 191.148438 214.257812 191.132812 214.269531 191.121094 C 214.257812 191.132812 214.246094 191.148438 214.230469 191.160156 C 214.953125 190.378906 216.175781 190.328125 216.957031 191.054688 Z M 217.5 194.195312 C 218.445312 193.167969 218.382812 191.566406 217.359375 190.617188 C 216.339844 189.671875 214.738281 189.734375 213.796875 190.757812 C 213.125 191.488281 212.96875 192.511719 213.300781 193.382812 C 206.601562 199.457031 198.050781 202.777344 188.960938 202.777344 C 168.894531 202.777344 152.566406 186.390625 152.566406 166.246094 C 152.566406 147.578125 166.578125 132.023438 184.832031 129.953125 C 185.234375 130.621094 185.976562 131.058594 186.808594 131.03125 C 188.039062 130.992188 189 129.960938 188.960938 128.726562 C 188.921875 127.492188 187.894531 126.523438 186.664062 126.566406 C 185.75 126.59375 184.984375 127.175781 184.667969 127.976562 C 165.394531 130.132812 150.59375 146.542969 150.59375 166.246094 C 150.59375 187.480469 167.804688 204.757812 188.960938 204.757812 C 198.566406 204.757812 207.605469 201.238281 214.671875 194.804688 C 215.621094 195.207031 216.761719 194.996094 217.5 194.195312 " fill-opacity="1" fill-rule="nonzero"/><path fill="#54afe6" d="M 219.589844 168.402344 C 219.589844 168.40625 219.589844 168.417969 219.589844 168.425781 C 219.589844 168.414062 219.589844 168.40625 219.589844 168.402344 Z M 219.589844 168.46875 C 219.585938 168.515625 219.585938 168.582031 219.582031 168.648438 C 219.585938 168.566406 219.585938 168.507812 219.589844 168.46875 Z M 219.570312 168.953125 C 219.570312 168.957031 219.570312 168.960938 219.570312 168.96875 C 219.570312 168.960938 219.570312 168.957031 219.570312 168.953125 Z M 219.570312 169.003906 C 219.570312 169.011719 219.570312 169.011719 219.570312 169.003906 Z M 221.582031 166.839844 C 222.644531 166.878906 223.476562 167.78125 223.4375 168.851562 C 223.394531 169.917969 222.5 170.75 221.433594 170.710938 C 220.371094 170.667969 219.539062 169.769531 219.578125 168.699219 C 219.621094 167.632812 220.519531 166.800781 221.582031 166.839844 Z M 224.027344 168.871094 C 224.082031 167.476562 222.992188 166.300781 221.605469 166.246094 C 220.214844 166.191406 219.042969 167.285156 218.988281 168.679688 C 218.953125 169.652344 219.472656 170.523438 220.265625 170.976562 C 218.820312 180.585938 213 189.082031 204.535156 193.902344 C 203.914062 193.449219 203.074219 193.332031 202.324219 193.671875 C 201.199219 194.175781 200.699219 195.496094 201.199219 196.625 C 201.703125 197.75 203.019531 198.253906 204.140625 197.75 C 204.984375 197.371094 205.476562 196.527344 205.457031 195.65625 C 214.496094 190.527344 220.707031 181.457031 222.226562 171.199219 C 223.230469 170.898438 223.984375 169.984375 224.027344 168.871094 " fill-opacity="1" fill-rule="nonzero"/><path fill="#54afe6" d="M 178.4375 195.226562 C 178.433594 195.226562 178.433594 195.222656 178.429688 195.222656 C 178.433594 195.222656 178.433594 195.226562 178.4375 195.226562 Z M 177.578125 199.015625 C 176.5625 198.699219 175.992188 197.613281 176.304688 196.589844 C 176.621094 195.570312 177.703125 195 178.71875 195.3125 C 178.613281 195.28125 178.503906 195.246094 178.453125 195.230469 C 178.492188 195.242188 178.574219 195.269531 178.71875 195.3125 C 178.878906 195.363281 178.960938 195.390625 178.996094 195.398438 C 178.953125 195.386719 178.835938 195.351562 178.71875 195.316406 C 179.738281 195.628906 180.308594 196.71875 179.992188 197.738281 C 179.675781 198.757812 178.59375 199.332031 177.578125 199.015625 Z M 157.734375 171.476562 C 158.375 171.042969 158.773438 170.289062 158.714844 169.460938 C 158.628906 168.234375 157.5625 167.308594 156.335938 167.394531 C 155.109375 167.484375 154.1875 168.550781 154.277344 169.78125 C 154.339844 170.707031 154.957031 171.457031 155.78125 171.738281 C 157.636719 183.027344 165.160156 192.683594 175.632812 197.238281 C 175.664062 198.289062 176.347656 199.253906 177.402344 199.582031 C 177.265625 199.539062 177.125 199.496094 177.058594 199.476562 C 177.113281 199.492188 177.21875 199.523438 177.402344 199.582031 C 177.605469 199.644531 177.714844 199.679688 177.761719 199.695312 C 177.703125 199.675781 177.554688 199.628906 177.402344 199.582031 C 178.730469 199.996094 180.148438 199.246094 180.558594 197.914062 C 180.96875 196.582031 180.222656 195.160156 178.894531 194.746094 C 177.964844 194.457031 176.992188 194.738281 176.351562 195.390625 C 166.546875 191.101562 159.496094 182.054688 157.734375 171.476562 " fill-opacity="1" fill-rule="nonzero"/></svg>
